<svg width="682" height="85" viewBox="0 0 682 85" fill="none" xmlns="http://www.w3.org/2000/svg">
<mask id="mask0_179_3" style="mask-type:alpha" maskUnits="userSpaceOnUse" x="0" y="0" width="674" height="84">
<path d="M673.64 72.7951C673.64 74.3284 673.334 75.7851 672.72 77.1651C672.184 78.4684 671.417 79.6184 670.42 80.6151C669.424 81.5351 668.235 82.2635 666.855 82.8001C665.552 83.4135 664.172 83.7201 662.715 83.7201C661.182 83.7201 659.764 83.4135 658.46 82.8001C657.157 82.2635 656.007 81.5351 655.01 80.6151C654.014 79.6184 653.209 78.4684 652.595 77.1651C652.059 75.7851 651.79 74.3284 651.79 72.7951C651.79 71.2618 652.059 69.8434 652.595 68.5401C653.209 67.1601 654.014 66.0101 655.01 65.0901C656.007 64.0935 657.157 63.3268 658.46 62.7901C659.764 62.1768 661.182 61.8701 662.715 61.8701C664.172 61.8701 665.552 62.1768 666.855 62.7901C668.235 63.3268 669.424 64.0935 670.42 65.0901C671.417 66.0101 672.184 67.1601 672.72 68.5401C673.334 69.8434 673.64 71.2618 673.64 72.7951Z" fill="black"/>
<path d="M581.145 82.1101H565.965V1.61011H581.145V34.6151H584.48L605.755 1.61011H622.89V2.30011L598.05 40.8251V42.8951L624.27 81.4201V82.1101H606.445L584.48 49.1051H581.145V82.1101Z" fill="black"/>
<path d="M532.81 72.7951C532.81 74.3284 532.504 75.7851 531.89 77.1651C531.354 78.4684 530.587 79.6184 529.59 80.6151C528.594 81.5351 527.405 82.2635 526.025 82.8001C524.722 83.4135 523.342 83.7201 521.885 83.7201C520.352 83.7201 518.934 83.4135 517.63 82.8001C516.327 82.2635 515.177 81.5351 514.18 80.6151C513.184 79.6184 512.379 78.4684 511.765 77.1651C511.229 75.7851 510.96 74.3284 510.96 72.7951C510.96 71.2618 511.229 69.8434 511.765 68.5401C512.379 67.1601 513.184 66.0101 514.18 65.0901C515.177 64.0935 516.327 63.3268 517.63 62.7901C518.934 62.1768 520.352 61.8701 521.885 61.8701C523.342 61.8701 524.722 62.1768 526.025 62.7901C527.405 63.3268 528.594 64.0935 529.59 65.0901C530.587 66.0101 531.354 67.1601 531.89 68.5401C532.504 69.8434 532.81 71.2618 532.81 72.7951Z" fill="black"/>
<path d="M451.7 69.92C454.614 69.92 456.99 69.4983 458.83 68.655C460.747 67.735 462.204 66.5467 463.2 65.09C464.274 63.5567 465.002 61.8317 465.385 59.915C465.769 57.9217 465.96 55.89 465.96 53.82V51.75H481.14V53.82C481.14 63.4033 478.61 70.8017 473.55 76.015C468.567 81.1517 461.284 83.72 451.7 83.72C442.5 83.72 435.217 80.9217 429.85 75.325C424.484 69.7283 421.8 61.5633 421.8 50.83V32.89C421.8 27.7533 422.49 23.1533 423.87 19.09C425.25 14.95 427.244 11.5 429.85 8.74C432.457 5.90334 435.6 3.75667 439.28 2.3C442.96 0.766667 447.1 0 451.7 0C456.454 0 460.67 0.689999 464.35 2.07C468.03 3.45 471.097 5.44333 473.55 8.05C476.08 10.6567 477.959 13.8 479.185 17.48C480.489 21.16 481.14 25.3 481.14 29.9V31.97H465.96V29.9C465.96 27.9833 465.73 26.0667 465.27 24.15C464.81 22.2333 464.044 20.5083 462.97 18.975C461.897 17.4417 460.44 16.215 458.6 15.295C456.76 14.2983 454.46 13.8 451.7 13.8C449.17 13.8 446.985 14.2983 445.145 15.295C443.305 16.215 441.772 17.5183 440.545 19.205C439.319 20.815 438.399 22.7317 437.785 24.955C437.249 27.1017 436.98 29.3633 436.98 31.74V51.98C436.98 54.5867 437.249 57.0017 437.785 59.225C438.322 61.3717 439.165 63.25 440.315 64.86C441.465 66.47 442.96 67.735 444.8 68.655C446.717 69.4983 449.017 69.92 451.7 69.92Z" fill="black"/>
<path d="M391.98 72.7951C391.98 74.3284 391.673 75.7851 391.06 77.1651C390.523 78.4684 389.757 79.6184 388.76 80.6151C387.763 81.5351 386.575 82.2635 385.195 82.8001C383.892 83.4135 382.512 83.7201 381.055 83.7201C379.522 83.7201 378.103 83.4135 376.8 82.8001C375.497 82.2635 374.347 81.5351 373.35 80.6151C372.353 79.6184 371.548 78.4684 370.935 77.1651C370.398 75.7851 370.13 74.3284 370.13 72.7951C370.13 71.2618 370.398 69.8434 370.935 68.5401C371.548 67.1601 372.353 66.0101 373.35 65.0901C374.347 64.0935 375.497 63.3268 376.8 62.7901C378.103 62.1768 379.522 61.8701 381.055 61.8701C382.512 61.8701 383.892 62.1768 385.195 62.7901C386.575 63.3268 387.763 64.0935 388.76 65.0901C389.757 66.0101 390.523 67.1601 391.06 68.5401C391.673 69.8434 391.98 71.2618 391.98 72.7951Z" fill="black"/>
<path d="M324.325 64.8601H296.955L293.045 82.1101H277.175L296.38 1.61011H324.9L344.105 82.1101H328.235L324.325 64.8601ZM300.175 50.3701H320.99L311.675 9.20011H309.605L300.175 50.3701Z" fill="black"/>
<path d="M251.15 72.7951C251.15 74.3284 250.843 75.7851 250.23 77.1651C249.693 78.4684 248.927 79.6184 247.93 80.6151C246.933 81.5351 245.745 82.2635 244.365 82.8001C243.062 83.4135 241.682 83.7201 240.225 83.7201C238.692 83.7201 237.273 83.4135 235.97 82.8001C234.667 82.2635 233.517 81.5351 232.52 80.6151C231.523 79.6184 230.718 78.4684 230.105 77.1651C229.568 75.7851 229.3 74.3284 229.3 72.7951C229.3 71.2618 229.568 69.8434 230.105 68.5401C230.718 67.1601 231.523 66.0101 232.52 65.0901C233.517 64.0935 234.667 63.3268 235.97 62.7901C237.273 62.1768 238.692 61.8701 240.225 61.8701C241.682 61.8701 243.062 62.1768 244.365 62.7901C245.745 63.3268 246.933 64.0935 247.93 65.0901C248.927 66.0101 249.693 67.1601 250.23 68.5401C250.843 69.8434 251.15 71.2618 251.15 72.7951Z" fill="black"/>
<path d="M197.065 82.1101H181.885V57.9601C181.885 56.1201 181.387 54.6251 180.39 53.4751C179.47 52.3251 177.898 51.7501 175.675 51.7501H158.195V82.1101H143.015V1.61011H173.835C177.975 1.61011 181.617 2.18511 184.76 3.33511C187.903 4.48511 190.51 6.09511 192.58 8.16511C194.727 10.1584 196.337 12.4968 197.41 15.1801C198.56 17.8634 199.135 20.7384 199.135 23.8051V26.5651C199.135 29.8618 198.253 32.9668 196.49 35.8801C194.727 38.7168 192.005 40.9018 188.325 42.4351V44.5051C191.008 44.8118 193.117 45.8468 194.65 47.6101C196.26 49.3734 197.065 51.5968 197.065 54.2801V82.1101ZM158.195 37.2601H172.685C176.365 37.2601 179.163 36.4168 181.08 34.7301C182.997 32.9668 183.955 30.5134 183.955 27.3701V25.9901C183.955 23.3068 182.997 21.0068 181.08 19.0901C179.163 17.0968 176.365 16.1001 172.685 16.1001H158.195V37.2601Z" fill="black"/>
<path d="M110.32 72.7951C110.32 74.3284 110.013 75.7851 109.4 77.1651C108.863 78.4684 108.097 79.6184 107.1 80.6151C106.103 81.5351 104.915 82.2635 103.535 82.8001C102.232 83.4135 100.852 83.7201 99.395 83.7201C97.8616 83.7201 96.4433 83.4135 95.14 82.8001C93.8366 82.2635 92.6866 81.5351 91.69 80.6151C90.6933 79.6184 89.8883 78.4684 89.275 77.1651C88.7383 75.7851 88.47 74.3284 88.47 72.7951C88.47 71.2618 88.7383 69.8434 89.275 68.5401C89.8883 67.1601 90.6933 66.0101 91.69 65.0901C92.6866 64.0935 93.8366 63.3268 95.14 62.7901C96.4433 62.1768 97.8616 61.8701 99.395 61.8701C100.852 61.8701 102.232 62.1768 103.535 62.7901C104.915 63.3268 106.103 64.0935 107.1 65.0901C108.097 66.0101 108.863 67.1601 109.4 68.5401C110.013 69.8434 110.32 71.2618 110.32 72.7951Z" fill="black"/>
<path d="M0 1.61011H57.96V16.1001H36.57V82.1101H21.39V16.1001H0V1.61011Z" fill="black"/>
</mask>
<g mask="url(#mask0_179_3)">
<rect x="-65" y="-36" width="817" height="59" fill="black"/>
</g>
<mask id="mask1_179_3" style="mask-type:alpha" maskUnits="userSpaceOnUse" x="8" y="1" width="674" height="84">
<path d="M681.64 73.7951C681.64 75.3284 681.334 76.7851 680.72 78.1651C680.184 79.4684 679.417 80.6184 678.42 81.6151C677.424 82.5351 676.235 83.2635 674.855 83.8001C673.552 84.4135 672.172 84.7201 670.715 84.7201C669.182 84.7201 667.764 84.4135 666.46 83.8001C665.157 83.2635 664.007 82.5351 663.01 81.6151C662.014 80.6184 661.209 79.4684 660.595 78.1651C660.059 76.7851 659.79 75.3284 659.79 73.7951C659.79 72.2618 660.059 70.8434 660.595 69.5401C661.209 68.1601 662.014 67.0101 663.01 66.0901C664.007 65.0935 665.157 64.3268 666.46 63.7901C667.764 63.1768 669.182 62.8701 670.715 62.8701C672.172 62.8701 673.552 63.1768 674.855 63.7901C676.235 64.3268 677.424 65.0935 678.42 66.0901C679.417 67.0101 680.184 68.1601 680.72 69.5401C681.334 70.8434 681.64 72.2618 681.64 73.7951Z" fill="black"/>
<path d="M589.145 83.1101H573.965V2.61011H589.145V35.6151H592.48L613.755 2.61011H630.89V3.30011L606.05 41.8251V43.8951L632.27 82.4201V83.1101H614.445L592.48 50.1051H589.145V83.1101Z" fill="black"/>
<path d="M540.81 73.7951C540.81 75.3284 540.504 76.7851 539.89 78.1651C539.354 79.4684 538.587 80.6184 537.59 81.6151C536.594 82.5351 535.405 83.2635 534.025 83.8001C532.722 84.4135 531.342 84.7201 529.885 84.7201C528.352 84.7201 526.934 84.4135 525.63 83.8001C524.327 83.2635 523.177 82.5351 522.18 81.6151C521.184 80.6184 520.379 79.4684 519.765 78.1651C519.229 76.7851 518.96 75.3284 518.96 73.7951C518.96 72.2618 519.229 70.8434 519.765 69.5401C520.379 68.1601 521.184 67.0101 522.18 66.0901C523.177 65.0935 524.327 64.3268 525.63 63.7901C526.934 63.1768 528.352 62.8701 529.885 62.8701C531.342 62.8701 532.722 63.1768 534.025 63.7901C535.405 64.3268 536.594 65.0935 537.59 66.0901C538.587 67.0101 539.354 68.1601 539.89 69.5401C540.504 70.8434 540.81 72.2618 540.81 73.7951Z" fill="black"/>
<path d="M459.7 70.92C462.614 70.92 464.99 70.4983 466.83 69.655C468.747 68.735 470.204 67.5467 471.2 66.09C472.274 64.5567 473.002 62.8317 473.385 60.915C473.769 58.9217 473.96 56.89 473.96 54.82V52.75H489.14V54.82C489.14 64.4033 486.61 71.8017 481.55 77.015C476.567 82.1517 469.284 84.72 459.7 84.72C450.5 84.72 443.217 81.9217 437.85 76.325C432.484 70.7283 429.8 62.5633 429.8 51.83V33.89C429.8 28.7533 430.49 24.1533 431.87 20.09C433.25 15.95 435.244 12.5 437.85 9.74C440.457 6.90334 443.6 4.75667 447.28 3.3C450.96 1.76667 455.1 1 459.7 1C464.454 1 468.67 1.69 472.35 3.07C476.03 4.45 479.097 6.44333 481.55 9.05C484.08 11.6567 485.959 14.8 487.185 18.48C488.489 22.16 489.14 26.3 489.14 30.9V32.97H473.96V30.9C473.96 28.9833 473.73 27.0667 473.27 25.15C472.81 23.2333 472.044 21.5083 470.97 19.975C469.897 18.4417 468.44 17.215 466.6 16.295C464.76 15.2983 462.46 14.8 459.7 14.8C457.17 14.8 454.985 15.2983 453.145 16.295C451.305 17.215 449.772 18.5183 448.545 20.205C447.319 21.815 446.399 23.7317 445.785 25.955C445.249 28.1017 444.98 30.3633 444.98 32.74V52.98C444.98 55.5867 445.249 58.0017 445.785 60.225C446.322 62.3717 447.165 64.25 448.315 65.86C449.465 67.47 450.96 68.735 452.8 69.655C454.717 70.4983 457.017 70.92 459.7 70.92Z" fill="black"/>
<path d="M399.98 73.7951C399.98 75.3284 399.673 76.7851 399.06 78.1651C398.523 79.4684 397.757 80.6184 396.76 81.6151C395.763 82.5351 394.575 83.2635 393.195 83.8001C391.892 84.4135 390.512 84.7201 389.055 84.7201C387.522 84.7201 386.103 84.4135 384.8 83.8001C383.497 83.2635 382.347 82.5351 381.35 81.6151C380.353 80.6184 379.548 79.4684 378.935 78.1651C378.398 76.7851 378.13 75.3284 378.13 73.7951C378.13 72.2618 378.398 70.8434 378.935 69.5401C379.548 68.1601 380.353 67.0101 381.35 66.0901C382.347 65.0935 383.497 64.3268 384.8 63.7901C386.103 63.1768 387.522 62.8701 389.055 62.8701C390.512 62.8701 391.892 63.1768 393.195 63.7901C394.575 64.3268 395.763 65.0935 396.76 66.0901C397.757 67.0101 398.523 68.1601 399.06 69.5401C399.673 70.8434 399.98 72.2618 399.98 73.7951Z" fill="black"/>
<path d="M332.325 65.8601H304.955L301.045 83.1101H285.175L304.38 2.61011H332.9L352.105 83.1101H336.235L332.325 65.8601ZM308.175 51.3701H328.99L319.675 10.2001H317.605L308.175 51.3701Z" fill="black"/>
<path d="M259.15 73.7951C259.15 75.3284 258.843 76.7851 258.23 78.1651C257.693 79.4684 256.927 80.6184 255.93 81.6151C254.933 82.5351 253.745 83.2635 252.365 83.8001C251.062 84.4135 249.682 84.7201 248.225 84.7201C246.692 84.7201 245.273 84.4135 243.97 83.8001C242.667 83.2635 241.517 82.5351 240.52 81.6151C239.523 80.6184 238.718 79.4684 238.105 78.1651C237.568 76.7851 237.3 75.3284 237.3 73.7951C237.3 72.2618 237.568 70.8434 238.105 69.5401C238.718 68.1601 239.523 67.0101 240.52 66.0901C241.517 65.0935 242.667 64.3268 243.97 63.7901C245.273 63.1768 246.692 62.8701 248.225 62.8701C249.682 62.8701 251.062 63.1768 252.365 63.7901C253.745 64.3268 254.933 65.0935 255.93 66.0901C256.927 67.0101 257.693 68.1601 258.23 69.5401C258.843 70.8434 259.15 72.2618 259.15 73.7951Z" fill="black"/>
<path d="M205.065 83.1101H189.885V58.9601C189.885 57.1201 189.387 55.6251 188.39 54.4751C187.47 53.3251 185.898 52.7501 183.675 52.7501H166.195V83.1101H151.015V2.61011H181.835C185.975 2.61011 189.617 3.18511 192.76 4.33511C195.903 5.48511 198.51 7.09511 200.58 9.16511C202.727 11.1584 204.337 13.4968 205.41 16.1801C206.56 18.8634 207.135 21.7384 207.135 24.8051V27.5651C207.135 30.8618 206.253 33.9668 204.49 36.8801C202.727 39.7168 200.005 41.9018 196.325 43.4351V45.5051C199.008 45.8118 201.117 46.8468 202.65 48.6101C204.26 50.3734 205.065 52.5968 205.065 55.2801V83.1101ZM166.195 38.2601H180.685C184.365 38.2601 187.163 37.4168 189.08 35.7301C190.997 33.9668 191.955 31.5134 191.955 28.3701V26.9901C191.955 24.3068 190.997 22.0068 189.08 20.0901C187.163 18.0968 184.365 17.1001 180.685 17.1001H166.195V38.2601Z" fill="black"/>
<path d="M118.32 73.7951C118.32 75.3284 118.013 76.7851 117.4 78.1651C116.863 79.4684 116.097 80.6184 115.1 81.6151C114.103 82.5351 112.915 83.2635 111.535 83.8001C110.232 84.4135 108.852 84.7201 107.395 84.7201C105.862 84.7201 104.443 84.4135 103.14 83.8001C101.837 83.2635 100.687 82.5351 99.69 81.6151C98.6933 80.6184 97.8883 79.4684 97.275 78.1651C96.7383 76.7851 96.47 75.3284 96.47 73.7951C96.47 72.2618 96.7383 70.8434 97.275 69.5401C97.8883 68.1601 98.6933 67.0101 99.69 66.0901C100.687 65.0935 101.837 64.3268 103.14 63.7901C104.443 63.1768 105.862 62.8701 107.395 62.8701C108.852 62.8701 110.232 63.1768 111.535 63.7901C112.915 64.3268 114.103 65.0935 115.1 66.0901C116.097 67.0101 116.863 68.1601 117.4 69.5401C118.013 70.8434 118.32 72.2618 118.32 73.7951Z" fill="black"/>
<path d="M8 2.61011H65.96V17.1001H44.57V83.1101H29.39V17.1001H8V2.61011Z" fill="black"/>
</mask>
<g mask="url(#mask1_179_3)">
<rect x="-48" y="23" width="899" height="46" fill="black"/>
</g>
<mask id="mask2_179_3" style="mask-type:alpha" maskUnits="userSpaceOnUse" x="4" y="1" width="674" height="84">
<path d="M677.64 73.7951C677.64 75.3284 677.334 76.7851 676.72 78.1651C676.184 79.4684 675.417 80.6184 674.42 81.6151C673.424 82.5351 672.235 83.2635 670.855 83.8001C669.552 84.4135 668.172 84.7201 666.715 84.7201C665.182 84.7201 663.764 84.4135 662.46 83.8001C661.157 83.2635 660.007 82.5351 659.01 81.6151C658.014 80.6184 657.209 79.4684 656.595 78.1651C656.059 76.7851 655.79 75.3284 655.79 73.7951C655.79 72.2618 656.059 70.8434 656.595 69.5401C657.209 68.1601 658.014 67.0101 659.01 66.0901C660.007 65.0935 661.157 64.3268 662.46 63.7901C663.764 63.1768 665.182 62.8701 666.715 62.8701C668.172 62.8701 669.552 63.1768 670.855 63.7901C672.235 64.3268 673.424 65.0935 674.42 66.0901C675.417 67.0101 676.184 68.1601 676.72 69.5401C677.334 70.8434 677.64 72.2618 677.64 73.7951Z" fill="black"/>
<path d="M585.145 83.1101H569.965V2.61011H585.145V35.6151H588.48L609.755 2.61011H626.89V3.30011L602.05 41.8251V43.8951L628.27 82.4201V83.1101H610.445L588.48 50.1051H585.145V83.1101Z" fill="black"/>
<path d="M536.81 73.7951C536.81 75.3284 536.504 76.7851 535.89 78.1651C535.354 79.4684 534.587 80.6184 533.59 81.6151C532.594 82.5351 531.405 83.2635 530.025 83.8001C528.722 84.4135 527.342 84.7201 525.885 84.7201C524.352 84.7201 522.934 84.4135 521.63 83.8001C520.327 83.2635 519.177 82.5351 518.18 81.6151C517.184 80.6184 516.379 79.4684 515.765 78.1651C515.229 76.7851 514.96 75.3284 514.96 73.7951C514.96 72.2618 515.229 70.8434 515.765 69.5401C516.379 68.1601 517.184 67.0101 518.18 66.0901C519.177 65.0935 520.327 64.3268 521.63 63.7901C522.934 63.1768 524.352 62.8701 525.885 62.8701C527.342 62.8701 528.722 63.1768 530.025 63.7901C531.405 64.3268 532.594 65.0935 533.59 66.0901C534.587 67.0101 535.354 68.1601 535.89 69.5401C536.504 70.8434 536.81 72.2618 536.81 73.7951Z" fill="black"/>
<path d="M455.7 70.92C458.614 70.92 460.99 70.4983 462.83 69.655C464.747 68.735 466.204 67.5467 467.2 66.09C468.274 64.5567 469.002 62.8317 469.385 60.915C469.769 58.9217 469.96 56.89 469.96 54.82V52.75H485.14V54.82C485.14 64.4033 482.61 71.8017 477.55 77.015C472.567 82.1517 465.284 84.72 455.7 84.72C446.5 84.72 439.217 81.9217 433.85 76.325C428.484 70.7283 425.8 62.5633 425.8 51.83V33.89C425.8 28.7533 426.49 24.1533 427.87 20.09C429.25 15.95 431.244 12.5 433.85 9.74C436.457 6.90334 439.6 4.75667 443.28 3.3C446.96 1.76667 451.1 1 455.7 1C460.454 1 464.67 1.69 468.35 3.07C472.03 4.45 475.097 6.44333 477.55 9.05C480.08 11.6567 481.959 14.8 483.185 18.48C484.489 22.16 485.14 26.3 485.14 30.9V32.97H469.96V30.9C469.96 28.9833 469.73 27.0667 469.27 25.15C468.81 23.2333 468.044 21.5083 466.97 19.975C465.897 18.4417 464.44 17.215 462.6 16.295C460.76 15.2983 458.46 14.8 455.7 14.8C453.17 14.8 450.985 15.2983 449.145 16.295C447.305 17.215 445.772 18.5183 444.545 20.205C443.319 21.815 442.399 23.7317 441.785 25.955C441.249 28.1017 440.98 30.3633 440.98 32.74V52.98C440.98 55.5867 441.249 58.0017 441.785 60.225C442.322 62.3717 443.165 64.25 444.315 65.86C445.465 67.47 446.96 68.735 448.8 69.655C450.717 70.4983 453.017 70.92 455.7 70.92Z" fill="black"/>
<path d="M395.98 73.7951C395.98 75.3284 395.673 76.7851 395.06 78.1651C394.523 79.4684 393.757 80.6184 392.76 81.6151C391.763 82.5351 390.575 83.2635 389.195 83.8001C387.892 84.4135 386.512 84.7201 385.055 84.7201C383.522 84.7201 382.103 84.4135 380.8 83.8001C379.497 83.2635 378.347 82.5351 377.35 81.6151C376.353 80.6184 375.548 79.4684 374.935 78.1651C374.398 76.7851 374.13 75.3284 374.13 73.7951C374.13 72.2618 374.398 70.8434 374.935 69.5401C375.548 68.1601 376.353 67.0101 377.35 66.0901C378.347 65.0935 379.497 64.3268 380.8 63.7901C382.103 63.1768 383.522 62.8701 385.055 62.8701C386.512 62.8701 387.892 63.1768 389.195 63.7901C390.575 64.3268 391.763 65.0935 392.76 66.0901C393.757 67.0101 394.523 68.1601 395.06 69.5401C395.673 70.8434 395.98 72.2618 395.98 73.7951Z" fill="black"/>
<path d="M328.325 65.8601H300.955L297.045 83.1101H281.175L300.38 2.61011H328.9L348.105 83.1101H332.235L328.325 65.8601ZM304.175 51.3701H324.99L315.675 10.2001H313.605L304.175 51.3701Z" fill="black"/>
<path d="M255.15 73.7951C255.15 75.3284 254.843 76.7851 254.23 78.1651C253.693 79.4684 252.927 80.6184 251.93 81.6151C250.933 82.5351 249.745 83.2635 248.365 83.8001C247.062 84.4135 245.682 84.7201 244.225 84.7201C242.692 84.7201 241.273 84.4135 239.97 83.8001C238.667 83.2635 237.517 82.5351 236.52 81.6151C235.523 80.6184 234.718 79.4684 234.105 78.1651C233.568 76.7851 233.3 75.3284 233.3 73.7951C233.3 72.2618 233.568 70.8434 234.105 69.5401C234.718 68.1601 235.523 67.0101 236.52 66.0901C237.517 65.0935 238.667 64.3268 239.97 63.7901C241.273 63.1768 242.692 62.8701 244.225 62.8701C245.682 62.8701 247.062 63.1768 248.365 63.7901C249.745 64.3268 250.933 65.0935 251.93 66.0901C252.927 67.0101 253.693 68.1601 254.23 69.5401C254.843 70.8434 255.15 72.2618 255.15 73.7951Z" fill="black"/>
<path d="M201.065 83.1101H185.885V58.9601C185.885 57.1201 185.387 55.6251 184.39 54.4751C183.47 53.3251 181.898 52.7501 179.675 52.7501H162.195V83.1101H147.015V2.61011H177.835C181.975 2.61011 185.617 3.18511 188.76 4.33511C191.903 5.48511 194.51 7.09511 196.58 9.16511C198.727 11.1584 200.337 13.4968 201.41 16.1801C202.56 18.8634 203.135 21.7384 203.135 24.8051V27.5651C203.135 30.8618 202.253 33.9668 200.49 36.8801C198.727 39.7168 196.005 41.9018 192.325 43.4351V45.5051C195.008 45.8118 197.117 46.8468 198.65 48.6101C200.26 50.3734 201.065 52.5968 201.065 55.2801V83.1101ZM162.195 38.2601H176.685C180.365 38.2601 183.163 37.4168 185.08 35.7301C186.997 33.9668 187.955 31.5134 187.955 28.3701V26.9901C187.955 24.3068 186.997 22.0068 185.08 20.0901C183.163 18.0968 180.365 17.1001 176.685 17.1001H162.195V38.2601Z" fill="black"/>
<path d="M114.32 73.7951C114.32 75.3284 114.013 76.7851 113.4 78.1651C112.863 79.4684 112.097 80.6184 111.1 81.6151C110.103 82.5351 108.915 83.2635 107.535 83.8001C106.232 84.4135 104.852 84.7201 103.395 84.7201C101.862 84.7201 100.443 84.4135 99.14 83.8001C97.8366 83.2635 96.6866 82.5351 95.69 81.6151C94.6933 80.6184 93.8883 79.4684 93.275 78.1651C92.7383 76.7851 92.47 75.3284 92.47 73.7951C92.47 72.2618 92.7383 70.8434 93.275 69.5401C93.8883 68.1601 94.6933 67.0101 95.69 66.0901C96.6866 65.0935 97.8366 64.3268 99.14 63.7901C100.443 63.1768 101.862 62.8701 103.395 62.8701C104.852 62.8701 106.232 63.1768 107.535 63.7901C108.915 64.3268 110.103 65.0935 111.1 66.0901C112.097 67.0101 112.863 68.1601 113.4 69.5401C114.013 70.8434 114.32 72.2618 114.32 73.7951Z" fill="black"/>
<path d="M4 2.61011H61.96V17.1001H40.57V83.1101H25.39V17.1001H4V2.61011Z" fill="black"/>
</mask>
<g mask="url(#mask2_179_3)">
<rect x="-29" y="69" width="785" height="46" fill="black"/>
</g>
</svg>
