<svg width="912" height="114" viewBox="0 0 912 114" fill="none" xmlns="http://www.w3.org/2000/svg">
<mask id="mask0_266_96" style="mask-type:alpha" maskUnits="userSpaceOnUse" x="0" y="0" width="901" height="112">
<path d="M900.618 97.3229C900.618 99.3729 900.208 101.32 899.388 103.165C898.671 104.908 897.646 106.445 896.314 107.778C894.981 109.008 893.392 109.982 891.547 110.699C889.805 111.519 887.96 111.929 886.012 111.929C883.962 111.929 882.066 111.519 880.324 110.699C878.581 109.982 877.044 109.008 875.711 107.778C874.379 106.445 873.302 104.908 872.482 103.165C871.765 101.32 871.406 99.3729 871.406 97.3229C871.406 95.2729 871.765 93.3767 872.482 91.6342C873.302 89.7892 874.379 88.2517 875.711 87.0218C877.044 85.6893 878.581 84.6643 880.324 83.9468C882.066 83.1268 883.962 82.7168 886.012 82.7168C887.96 82.7168 889.805 83.1268 891.547 83.9468C893.392 84.6643 894.981 85.6893 896.314 87.0218C897.646 88.2517 898.671 89.7892 899.388 91.6342C900.208 93.3767 900.618 95.2729 900.618 97.3229Z" fill="white"/>
<path d="M776.958 109.777H756.663V2.15332H776.958V46.2791H781.417L809.86 2.15332H832.769V3.07581L799.559 54.5815V57.349L834.614 108.855V109.777H810.783L781.417 65.6514H776.958V109.777Z" fill="white"/>
<path d="M712.337 97.3229C712.337 99.3729 711.927 101.32 711.107 103.165C710.39 104.908 709.365 106.445 708.032 107.778C706.7 109.008 705.111 109.982 703.266 110.699C701.524 111.519 699.679 111.929 697.731 111.929C695.681 111.929 693.785 111.519 692.042 110.699C690.3 109.982 688.762 109.008 687.43 107.778C686.097 106.445 685.021 104.908 684.201 103.165C683.484 101.32 683.125 99.3729 683.125 97.3229C683.125 95.2729 683.484 93.3767 684.201 91.6342C685.021 89.7892 686.097 88.2517 687.43 87.0218C688.762 85.6893 690.3 84.6643 692.042 83.9468C693.785 83.1268 695.681 82.7168 697.731 82.7168C699.679 82.7168 701.524 83.1268 703.266 83.9468C705.111 84.6643 706.7 85.6893 708.032 87.0218C709.365 88.2517 710.39 89.7892 711.107 91.6342C711.927 93.3767 712.337 95.2729 712.337 97.3229Z" fill="white"/>
<path d="M603.897 93.479C607.792 93.479 610.97 92.9153 613.43 91.7878C615.992 90.5578 617.94 88.9691 619.272 87.0216C620.707 84.9716 621.681 82.6654 622.194 80.1029C622.706 77.438 622.962 74.7217 622.962 71.9543V69.1868H643.257V71.9543C643.257 84.7666 639.875 94.6578 633.11 101.628C626.447 108.495 616.71 111.929 603.897 111.929C591.598 111.929 581.86 108.188 574.685 100.705C567.51 93.2228 563.923 82.3067 563.923 67.9568V43.9721C563.923 37.1046 564.845 30.9547 566.69 25.5222C568.535 19.9873 571.2 15.3748 574.685 11.6849C578.17 7.89242 582.373 5.02245 587.293 3.07497C592.213 1.02499 597.748 0 603.897 0C610.252 0 615.89 0.922489 620.81 2.76747C625.73 4.61245 629.83 7.27743 633.11 10.7624C636.492 14.2474 639.003 18.4498 640.643 23.3698C642.386 28.2897 643.257 33.8247 643.257 39.9746V42.7421H622.962V39.9746C622.962 37.4121 622.655 34.8496 622.04 32.2872C621.425 29.7247 620.4 27.4185 618.965 25.3685C617.53 23.3185 615.582 21.6785 613.122 20.4485C610.662 19.1161 607.587 18.4498 603.897 18.4498C600.515 18.4498 597.594 19.1161 595.134 20.4485C592.674 21.6785 590.624 23.421 588.984 25.676C587.344 27.8285 586.114 30.3909 585.294 33.3634C584.576 36.2334 584.218 39.2571 584.218 42.4346V69.4943C584.218 72.9792 584.576 76.208 585.294 79.1804C586.011 82.0504 587.139 84.5616 588.676 86.7141C590.214 88.8666 592.213 90.5578 594.673 91.7878C597.235 92.9153 600.31 93.479 603.897 93.479Z" fill="white"/>
<path d="M524.055 97.3229C524.055 99.3729 523.645 101.32 522.825 103.165C522.107 104.908 521.082 106.445 519.75 107.778C518.417 109.008 516.829 109.982 514.984 110.699C513.241 111.519 511.396 111.929 509.449 111.929C507.399 111.929 505.503 111.519 503.76 110.699C502.018 109.982 500.48 109.008 499.148 107.778C497.815 106.445 496.739 104.908 495.919 103.165C495.202 101.32 494.843 99.3729 494.843 97.3229C494.843 95.2729 495.202 93.3767 495.919 91.6342C496.739 89.7892 497.815 88.2517 499.148 87.0218C500.48 85.6893 502.018 84.6643 503.76 83.9468C505.503 83.1268 507.399 82.7168 509.449 82.7168C511.396 82.7168 513.241 83.1268 514.984 83.9468C516.829 84.6643 518.417 85.6893 519.75 87.0218C521.082 88.2517 522.107 89.7892 522.825 91.6342C523.645 93.3767 524.055 95.2729 524.055 97.3229Z" fill="white"/>
<path d="M433.603 86.715H397.011L391.784 109.777H370.566L396.242 2.15332H434.372L460.048 109.777H438.831L433.603 86.715ZM401.316 67.3427H429.145L416.691 12.3007H413.923L401.316 67.3427Z" fill="white"/>
<path d="M335.773 97.3229C335.773 99.3729 335.363 101.32 334.543 103.165C333.825 104.908 332.8 106.445 331.468 107.778C330.135 109.008 328.547 109.982 326.702 110.699C324.959 111.519 323.114 111.929 321.167 111.929C319.117 111.929 317.22 111.519 315.478 110.699C313.735 109.982 312.198 109.008 310.866 107.778C309.533 106.445 308.457 104.908 307.637 103.165C306.919 101.32 306.561 99.3729 306.561 97.3229C306.561 95.2729 306.919 93.3767 307.637 91.6342C308.457 89.7892 309.533 88.2517 310.866 87.0218C312.198 85.6893 313.735 84.6643 315.478 83.9468C317.22 83.1268 319.117 82.7168 321.167 82.7168C323.114 82.7168 324.959 83.1268 326.702 83.9468C328.547 84.6643 330.135 85.6893 331.468 87.0218C332.8 88.2517 333.825 89.7892 334.543 91.6342C335.363 93.3767 335.773 95.2729 335.773 97.3229Z" fill="white"/>
<path d="M263.465 109.777H243.17V77.4901C243.17 75.0301 242.504 73.0313 241.171 71.4939C239.941 69.9564 237.84 69.1876 234.868 69.1876H211.498V109.777H191.203V2.15332H232.408C237.943 2.15332 242.811 2.92206 247.014 4.45954C251.216 5.99703 254.701 8.14951 257.469 10.917C260.339 13.582 262.491 16.7082 263.926 20.2956C265.464 23.8831 266.232 27.7268 266.232 31.8268V35.5167C266.232 39.9242 265.054 44.0754 262.696 47.9704C260.339 51.7628 256.7 54.684 251.78 56.734V59.5015C255.367 59.9115 258.186 61.2952 260.236 63.6527C262.389 66.0102 263.465 68.9826 263.465 72.5701V109.777ZM211.498 49.8153H230.87C235.79 49.8153 239.531 48.6878 242.094 46.4329C244.656 44.0754 245.938 40.7954 245.938 36.593V34.748C245.938 31.1605 244.656 28.0856 242.094 25.5231C239.531 22.8581 235.79 21.5256 230.87 21.5256H211.498V49.8153Z" fill="white"/>
<path d="M147.492 97.3229C147.492 99.3729 147.082 101.32 146.262 103.165C145.544 104.908 144.519 106.445 143.187 107.778C141.854 109.008 140.265 109.982 138.42 110.699C136.678 111.519 134.833 111.929 132.885 111.929C130.835 111.929 128.939 111.519 127.197 110.699C125.454 109.982 123.917 109.008 122.584 107.778C121.252 106.445 120.176 104.908 119.356 103.165C118.638 101.32 118.279 99.3729 118.279 97.3229C118.279 95.2729 118.638 93.3767 119.356 91.6342C120.176 89.7892 121.252 88.2517 122.584 87.0218C123.917 85.6893 125.454 84.6643 127.197 83.9468C128.939 83.1268 130.835 82.7168 132.885 82.7168C134.833 82.7168 136.678 83.1268 138.42 83.9468C140.265 84.6643 141.854 85.6893 143.187 87.0218C144.519 88.2517 145.544 89.7892 146.262 91.6342C147.082 93.3767 147.492 95.2729 147.492 97.3229Z" fill="white"/>
<path d="M0 2.15332H77.4892V21.5256H48.892V109.777H28.5972V21.5256H0V2.15332Z" fill="white"/>
</mask>
<g mask="url(#mask0_266_96)">
<rect x="-86.9014" y="-48.1299" width="1092.28" height="78.8796" fill="white"/>
</g>
<mask id="mask1_266_96" style="mask-type:alpha" maskUnits="userSpaceOnUse" x="10" y="1" width="902" height="113">
<path d="M911.315 98.6598C911.315 100.71 910.905 102.657 910.085 104.502C909.367 106.245 908.342 107.782 907.01 109.115C905.677 110.345 904.089 111.318 902.244 112.036C900.501 112.856 898.656 113.266 896.709 113.266C894.659 113.266 892.762 112.856 891.02 112.036C889.277 111.318 887.74 110.345 886.407 109.115C885.075 107.782 883.999 106.245 883.179 104.502C882.461 102.657 882.103 100.71 882.103 98.6598C882.103 96.6098 882.461 94.7136 883.179 92.9711C883.999 91.1261 885.075 89.5887 886.407 88.3587C887.74 87.0262 889.277 86.0012 891.02 85.2837C892.762 84.4637 894.659 84.0537 896.709 84.0537C898.656 84.0537 900.501 84.4637 902.244 85.2837C904.089 86.0012 905.677 87.0262 907.01 88.3587C908.342 89.5887 909.367 91.1261 910.085 92.9711C910.905 94.7136 911.315 96.6098 911.315 98.6598Z" fill="white"/>
<path d="M787.654 111.114H767.359V3.49023H787.654V47.616H792.113L820.556 3.49023H843.465V4.41273L810.255 55.9184V58.6859L845.31 110.192V111.114H821.479L792.113 66.9883H787.654V111.114Z" fill="white"/>
<path d="M723.033 98.6598C723.033 100.71 722.623 102.657 721.803 104.502C721.086 106.245 720.061 107.782 718.729 109.115C717.396 110.345 715.807 111.318 713.962 112.036C712.22 112.856 710.375 113.266 708.427 113.266C706.377 113.266 704.481 112.856 702.739 112.036C700.996 111.318 699.459 110.345 698.126 109.115C696.794 107.782 695.718 106.245 694.898 104.502C694.18 102.657 693.821 100.71 693.821 98.6598C693.821 96.6098 694.18 94.7136 694.898 92.9711C695.718 91.1261 696.794 89.5887 698.126 88.3587C699.459 87.0262 700.996 86.0012 702.739 85.2837C704.481 84.4637 706.377 84.0537 708.427 84.0537C710.375 84.0537 712.22 84.4637 713.962 85.2837C715.807 86.0012 717.396 87.0262 718.729 88.3587C720.061 89.5887 721.086 91.1261 721.803 92.9711C722.623 94.7136 723.033 96.6098 723.033 98.6598Z" fill="white"/>
<path d="M614.594 94.8159C618.489 94.8159 621.666 94.2522 624.126 93.1247C626.689 91.8947 628.636 90.306 629.969 88.3585C631.404 86.3086 632.377 84.0023 632.89 81.4398C633.402 78.7749 633.659 76.0587 633.659 73.2912V70.5237H653.953V73.2912C653.953 86.1035 650.571 95.9947 643.806 102.965C637.143 109.832 627.406 113.266 614.594 113.266C602.294 113.266 592.556 109.525 585.382 102.042C578.207 94.5597 574.619 83.6436 574.619 69.2937V45.309C574.619 38.4415 575.542 32.2916 577.387 26.8592C579.232 21.3242 581.897 16.7118 585.382 13.0218C588.867 9.22934 593.069 6.35937 597.989 4.41189C602.909 2.3619 608.444 1.33691 614.594 1.33691C620.949 1.33691 626.586 2.2594 631.506 4.10439C636.426 5.94937 640.526 8.61434 643.806 12.0993C647.188 15.5843 649.7 19.7867 651.34 24.7067C653.082 29.6266 653.953 35.1616 653.953 41.3115V44.079H633.659V41.3115C633.659 38.749 633.351 36.1866 632.736 33.6241C632.121 31.0616 631.096 28.7554 629.661 26.7054C628.226 24.6554 626.279 23.0154 623.819 21.7855C621.359 20.453 618.284 19.7867 614.594 19.7867C611.211 19.7867 608.29 20.453 605.83 21.7855C603.37 23.0154 601.32 24.7579 599.68 27.0129C598.04 29.1654 596.81 31.7279 595.99 34.7003C595.273 37.5703 594.914 40.594 594.914 43.7715V70.8312C594.914 74.3162 595.273 77.5449 595.99 80.5174C596.708 83.3873 597.835 85.8985 599.373 88.051C600.91 90.2035 602.909 91.8947 605.369 93.1247C607.931 94.2522 611.006 94.8159 614.594 94.8159Z" fill="white"/>
<path d="M534.75 98.6598C534.75 100.71 534.34 102.657 533.52 104.502C532.803 106.245 531.778 107.782 530.445 109.115C529.113 110.345 527.524 111.318 525.679 112.036C523.937 112.856 522.092 113.266 520.144 113.266C518.094 113.266 516.198 112.856 514.455 112.036C512.713 111.318 511.176 110.345 509.843 109.115C508.511 107.782 507.434 106.245 506.614 104.502C505.897 102.657 505.538 100.71 505.538 98.6598C505.538 96.6098 505.897 94.7136 506.614 92.9711C507.434 91.1261 508.511 89.5887 509.843 88.3587C511.176 87.0262 512.713 86.0012 514.455 85.2837C516.198 84.4637 518.094 84.0537 520.144 84.0537C522.092 84.0537 523.937 84.4637 525.679 85.2837C527.524 86.0012 529.113 87.0262 530.445 88.3587C531.778 89.5887 532.803 91.1261 533.52 92.9711C534.34 94.7136 534.75 96.6098 534.75 98.6598Z" fill="white"/>
<path d="M444.3 88.0519H407.707L402.48 111.114H381.263L406.939 3.49023H445.068L470.744 111.114H449.527L444.3 88.0519ZM412.012 68.6796H439.841L427.387 13.6376H424.62L412.012 68.6796Z" fill="white"/>
<path d="M346.469 98.6598C346.469 100.71 346.059 102.657 345.239 104.502C344.522 106.245 343.497 107.782 342.164 109.115C340.832 110.345 339.243 111.318 337.398 112.036C335.655 112.856 333.81 113.266 331.863 113.266C329.813 113.266 327.917 112.856 326.174 112.036C324.432 111.318 322.894 110.345 321.562 109.115C320.229 107.782 319.153 106.245 318.333 104.502C317.616 102.657 317.257 100.71 317.257 98.6598C317.257 96.6098 317.616 94.7136 318.333 92.9711C319.153 91.1261 320.229 89.5887 321.562 88.3587C322.894 87.0262 324.432 86.0012 326.174 85.2837C327.917 84.4637 329.813 84.0537 331.863 84.0537C333.81 84.0537 335.655 84.4637 337.398 85.2837C339.243 86.0012 340.832 87.0262 342.164 88.3587C343.497 89.5887 344.522 91.1261 345.239 92.9711C346.059 94.7136 346.469 96.6098 346.469 98.6598Z" fill="white"/>
<path d="M274.161 111.114H253.866V78.827C253.866 76.367 253.2 74.3683 251.868 72.8308C250.638 71.2933 248.536 70.5246 245.564 70.5246H222.194V111.114H201.899V3.49023H243.104C248.639 3.49023 253.508 4.25898 257.71 5.79646C261.913 7.33395 265.398 9.48643 268.165 12.2539C271.035 14.9189 273.187 18.0451 274.622 21.6326C276.16 25.22 276.929 29.0637 276.929 33.1637V36.8537C276.929 41.2611 275.75 45.4123 273.392 49.3073C271.035 53.0997 267.396 56.021 262.476 58.0709V60.8384C266.064 61.2484 268.882 62.6321 270.932 64.9896C273.085 67.3471 274.161 70.3196 274.161 73.907V111.114ZM222.194 51.1523H241.567C246.486 51.1523 250.228 50.0248 252.79 47.7698C255.353 45.4123 256.634 42.1323 256.634 37.9299V36.0849C256.634 32.4974 255.353 29.4225 252.79 26.86C250.228 24.195 246.486 22.8625 241.567 22.8625H222.194V51.1523Z" fill="white"/>
<path d="M158.188 98.6598C158.188 100.71 157.778 102.657 156.958 104.502C156.24 106.245 155.215 107.782 153.883 109.115C152.55 110.345 150.962 111.318 149.117 112.036C147.374 112.856 145.529 113.266 143.582 113.266C141.532 113.266 139.635 112.856 137.893 112.036C136.151 111.318 134.613 110.345 133.281 109.115C131.948 107.782 130.872 106.245 130.052 104.502C129.334 102.657 128.976 100.71 128.976 98.6598C128.976 96.6098 129.334 94.7136 130.052 92.9711C130.872 91.1261 131.948 89.5887 133.281 88.3587C134.613 87.0262 136.151 86.0012 137.893 85.2837C139.635 84.4637 141.532 84.0537 143.582 84.0537C145.529 84.0537 147.374 84.4637 149.117 85.2837C150.962 86.0012 152.55 87.0262 153.883 88.3587C155.215 89.5887 156.24 91.1261 156.958 92.9711C157.778 94.7136 158.188 96.6098 158.188 98.6598Z" fill="white"/>
<path d="M10.6963 3.49023H88.1855V22.8625H59.5883V111.114H39.2935V22.8625H10.6963V3.49023Z" fill="white"/>
</mask>
<g mask="url(#mask1_266_96)">
<rect x="-64.1729" y="30.75" width="1201.91" height="61.4994" fill="white"/>
</g>
<mask id="mask2_266_96" style="mask-type:alpha" maskUnits="userSpaceOnUse" x="5" y="1" width="901" height="113">
<path d="M905.967 98.6598C905.967 100.71 905.557 102.657 904.737 104.502C904.02 106.245 902.995 107.782 901.662 109.115C900.33 110.345 898.741 111.318 896.896 112.036C895.153 112.856 893.308 113.266 891.361 113.266C889.311 113.266 887.415 112.856 885.672 112.036C883.93 111.318 882.392 110.345 881.06 109.115C879.727 107.782 878.651 106.245 877.831 104.502C877.114 102.657 876.755 100.71 876.755 98.6598C876.755 96.6098 877.114 94.7136 877.831 92.9711C878.651 91.1261 879.727 89.5887 881.06 88.3587C882.392 87.0262 883.93 86.0012 885.672 85.2837C887.415 84.4637 889.311 84.0537 891.361 84.0537C893.308 84.0537 895.153 84.4637 896.896 85.2837C898.741 86.0012 900.33 87.0262 901.662 88.3587C902.995 89.5887 904.02 91.1261 904.737 92.9711C905.557 94.7136 905.967 96.6098 905.967 98.6598Z" fill="white"/>
<path d="M782.307 111.114H762.012V3.49023H782.307V47.616H786.765L815.209 3.49023H838.117V4.41273L804.908 55.9184V58.6859L839.962 110.192V111.114H816.131L786.765 66.9883H782.307V111.114Z" fill="white"/>
<path d="M717.686 98.6598C717.686 100.71 717.276 102.657 716.456 104.502C715.738 106.245 714.713 107.782 713.381 109.115C712.048 110.345 710.46 111.318 708.615 112.036C706.872 112.856 705.027 113.266 703.08 113.266C701.03 113.266 699.133 112.856 697.391 112.036C695.649 111.318 694.111 110.345 692.779 109.115C691.446 107.782 690.37 106.245 689.55 104.502C688.832 102.657 688.474 100.71 688.474 98.6598C688.474 96.6098 688.832 94.7136 689.55 92.9711C690.37 91.1261 691.446 89.5887 692.779 88.3587C694.111 87.0262 695.649 86.0012 697.391 85.2837C699.133 84.4637 701.03 84.0537 703.08 84.0537C705.027 84.0537 706.872 84.4637 708.615 85.2837C710.46 86.0012 712.048 87.0262 713.381 88.3587C714.713 89.5887 715.738 91.1261 716.456 92.9711C717.276 94.7136 717.686 96.6098 717.686 98.6598Z" fill="white"/>
<path d="M609.246 94.8159C613.141 94.8159 616.319 94.2522 618.778 93.1247C621.341 91.8947 623.288 90.306 624.621 88.3585C626.056 86.3086 627.03 84.0023 627.542 81.4398C628.055 78.7749 628.311 76.0587 628.311 73.2912V70.5237H648.606V73.2912C648.606 86.1035 645.223 95.9947 638.458 102.965C631.796 109.832 622.058 113.266 609.246 113.266C596.946 113.266 587.209 109.525 580.034 102.042C572.859 94.5597 569.271 83.6436 569.271 69.2937V45.309C569.271 38.4415 570.194 32.2916 572.039 26.8592C573.884 21.3242 576.549 16.7118 580.034 13.0218C583.519 9.22934 587.721 6.35937 592.641 4.41189C597.561 2.3619 603.096 1.33691 609.246 1.33691C615.601 1.33691 621.238 2.2594 626.158 4.10439C631.078 5.94937 635.178 8.61434 638.458 12.0993C641.841 15.5843 644.352 19.7867 645.992 24.7067C647.734 29.6266 648.606 35.1616 648.606 41.3115V44.079H628.311V41.3115C628.311 38.749 628.003 36.1866 627.388 33.6241C626.773 31.0616 625.748 28.7554 624.313 26.7054C622.878 24.6554 620.931 23.0154 618.471 21.7855C616.011 20.453 612.936 19.7867 609.246 19.7867C605.864 19.7867 602.942 20.453 600.482 21.7855C598.022 23.0154 595.972 24.7579 594.333 27.0129C592.693 29.1654 591.463 31.7279 590.643 34.7003C589.925 37.5703 589.566 40.594 589.566 43.7715V70.8312C589.566 74.3162 589.925 77.5449 590.643 80.5174C591.36 83.3873 592.488 85.8985 594.025 88.051C595.562 90.2035 597.561 91.8947 600.021 93.1247C602.584 94.2522 605.659 94.8159 609.246 94.8159Z" fill="white"/>
<path d="M529.403 98.6598C529.403 100.71 528.993 102.657 528.173 104.502C527.455 106.245 526.43 107.782 525.098 109.115C523.765 110.345 522.176 111.318 520.331 112.036C518.589 112.856 516.744 113.266 514.797 113.266C512.747 113.266 510.85 112.856 509.108 112.036C507.365 111.318 505.828 110.345 504.495 109.115C503.163 107.782 502.087 106.245 501.267 104.502C500.549 102.657 500.19 100.71 500.19 98.6598C500.19 96.6098 500.549 94.7136 501.267 92.9711C502.087 91.1261 503.163 89.5887 504.495 88.3587C505.828 87.0262 507.365 86.0012 509.108 85.2837C510.85 84.4637 512.747 84.0537 514.797 84.0537C516.744 84.0537 518.589 84.4637 520.331 85.2837C522.176 86.0012 523.765 87.0262 525.098 88.3587C526.43 89.5887 527.455 91.1261 528.173 92.9711C528.993 94.7136 529.403 96.6098 529.403 98.6598Z" fill="white"/>
<path d="M438.952 88.0519H402.36L397.132 111.114H375.915L401.591 3.49023H439.721L465.397 111.114H444.179L438.952 88.0519ZM406.665 68.6796H434.493L422.04 13.6376H419.272L406.665 68.6796Z" fill="white"/>
<path d="M341.121 98.6598C341.121 100.71 340.711 102.657 339.891 104.502C339.174 106.245 338.149 107.782 336.816 109.115C335.484 110.345 333.895 111.318 332.05 112.036C330.308 112.856 328.463 113.266 326.515 113.266C324.465 113.266 322.569 112.856 320.827 112.036C319.084 111.318 317.547 110.345 316.214 109.115C314.882 107.782 313.805 106.245 312.985 104.502C312.268 102.657 311.909 100.71 311.909 98.6598C311.909 96.6098 312.268 94.7136 312.985 92.9711C313.805 91.1261 314.882 89.5887 316.214 88.3587C317.547 87.0262 319.084 86.0012 320.827 85.2837C322.569 84.4637 324.465 84.0537 326.515 84.0537C328.463 84.0537 330.308 84.4637 332.05 85.2837C333.895 86.0012 335.484 87.0262 336.816 88.3587C338.149 89.5887 339.174 91.1261 339.891 92.9711C340.711 94.7136 341.121 96.6098 341.121 98.6598Z" fill="white"/>
<path d="M268.814 111.114H248.519V78.827C248.519 76.367 247.852 74.3683 246.52 72.8308C245.29 71.2933 243.189 70.5246 240.216 70.5246H216.847V111.114H196.552V3.49023H237.756C243.291 3.49023 248.16 4.25898 252.362 5.79646C256.565 7.33395 260.05 9.48643 262.817 12.2539C265.687 14.9189 267.84 18.0451 269.275 21.6326C270.812 25.22 271.581 29.0637 271.581 33.1637V36.8537C271.581 41.2611 270.402 45.4123 268.045 49.3073C265.687 53.0997 262.049 56.021 257.129 58.0709V60.8384C260.716 61.2484 263.535 62.6321 265.585 64.9896C267.737 67.3471 268.814 70.3196 268.814 73.907V111.114ZM216.847 51.1523H236.219C241.139 51.1523 244.88 50.0248 247.442 47.7698C250.005 45.4123 251.286 42.1323 251.286 37.9299V36.0849C251.286 32.4974 250.005 29.4225 247.442 26.86C244.88 24.195 241.139 22.8625 236.219 22.8625H216.847V51.1523Z" fill="white"/>
<path d="M152.84 98.6598C152.84 100.71 152.43 102.657 151.61 104.502C150.893 106.245 149.868 107.782 148.535 109.115C147.203 110.345 145.614 111.318 143.769 112.036C142.026 112.856 140.182 113.266 138.234 113.266C136.184 113.266 134.288 112.856 132.545 112.036C130.803 111.318 129.265 110.345 127.933 109.115C126.6 107.782 125.524 106.245 124.704 104.502C123.987 102.657 123.628 100.71 123.628 98.6598C123.628 96.6098 123.987 94.7136 124.704 92.9711C125.524 91.1261 126.6 89.5887 127.933 88.3587C129.265 87.0262 130.803 86.0012 132.545 85.2837C134.288 84.4637 136.184 84.0537 138.234 84.0537C140.182 84.0537 142.026 84.4637 143.769 85.2837C145.614 86.0012 147.203 87.0262 148.535 88.3587C149.868 89.5887 150.893 91.1261 151.61 92.9711C152.43 94.7136 152.84 96.6098 152.84 98.6598Z" fill="white"/>
<path d="M5.34863 3.49023H82.8378V22.8625H54.2406V111.114H33.9458V22.8625H5.34863V3.49023Z" fill="white"/>
</mask>
<g mask="url(#mask2_266_96)">
<rect x="-38.7705" y="92.249" width="1049.5" height="61.4994" fill="white"/>
</g>
</svg>
